<?xml version="1.0" encoding="UTF-8"?>
<svg xmlns="http://www.w3.org/2000/svg" viewBox="0 0 209.1 97.3">
  <defs>
    <style>.cls-1,.cls-2{fill:none;}.cls-2,.cls-3{stroke:#000;stroke-miterlimit:10;}</style>
  </defs>
  <g id="Livello_2" data-name="Livello 2">
    <g id="Livello_1-2" data-name="Livello 1">
      <rect class="cls-1" width="289.1" height="97.3"></rect>
      <g id="Livello_2-2" data-name="Livello 2">
        <g id="Livello_1-2-2" data-name="Livello 1-2">
          <rect x="53.8" y="16" width="10.2" height="38.3"></rect>
          <rect class="cls-2" x="53.8" y="16" width="10.2" height="38.3"></rect>
          <rect x="96.6" y="16.1" width="10.2" height="38.2"></rect>
          <rect class="cls-2" x="96.6" y="16.1" width="10.2" height="38.2"></rect>
          <rect x="74.6" y="32.9" width="10.8" height="4.8"></rect>
          <rect class="cls-2" x="74.6" y="32.9" width="10.8" height="4.8"></rect>
          <path d="M14.2,41.6a6.5,6.5,0,0,0-5.7,3.5h0a6.29,6.29,0,0,0,2.9,8.5,6.81,6.81,0,0,0,2.8.7v-.1H4l6.3-12.7H20.5"></path>
          <path class="cls-2" d="M14.2,41.6a6.5,6.5,0,0,0-5.7,3.5h0a6.29,6.29,0,0,0,2.9,8.5,6.81,6.81,0,0,0,2.8.7v-.1H4l6.3-12.7H20.5"></path>
          <path d="M193.2,25.3h0a6.24,6.24,0,0,0-2.9-8.5,6.81,6.81,0,0,0-2.8-.7v.1h10.2l-6.3,12.7Z"></path>
          <path class="cls-2" d="M193.2,25.3h0a6.24,6.24,0,0,0-2.9-8.5,6.81,6.81,0,0,0-2.8-.7v.1h10.2l-6.3,12.7Z"></path>
          <path d="M92.6,16.1h0a6.36,6.36,0,0,0-6.4,6.3,5.55,5.55,0,0,0,.7,2.8H87L82.5,16H96.7Z"></path>
          <path class="cls-2" d="M92.6,16.1h0a6.36,6.36,0,0,0-6.4,6.3,5.55,5.55,0,0,0,.7,2.8H87L82.5,16H96.7Z"></path>
          <path d="M110.8,16.1h0a6.36,6.36,0,0,1,6.4,6.3,5.55,5.55,0,0,1-.7,2.8h-.1l4.5-9.2H106.7Z"></path>
          <path class="cls-2" d="M110.8,16.1h0a6.36,6.36,0,0,1,6.4,6.3,5.55,5.55,0,0,1-.7,2.8h-.1l4.5-9.2H106.7Z"></path>
          <polygon class="cls-3" points="47 54.3 28.3 16 22.7 16 20.4 20.7 36.8 54.3 47 54.3"></polygon>
          <polygon class="cls-3" points="129.1 16 147.8 54.3 153.3 54.3 155.6 49.6 139.3 16 129.1 16"></polygon>
          <polygon class="cls-3" points="168.6 16 163.1 16 160.7 20.7 177.1 54.3 182.8 54.3 185.1 49.7 168.6 16"></polygon>
          <path d="M9.8,68s.1.2.3.7c1,2.7,2.6,6.7,4.7,12.1,0,.1.1.2.1.3H13.6c0-.1-.3-.7-.8-2-.1-.4-.3-.7-.4-1.1H6s-.4.9-1,2.4l-.3.6H3.4c.9-2.2,2.6-6.6,5.1-13.1ZM6.4,76.7h5.4l-2.7-7Z"></path>
          <path d="M21,68h1.2V81.1H20.9L21,68Z"></path>
          <path d="M28.7,76.1H35v1.3H28.7Z"></path>
          <path d="M48.4,68h0v1.2H44.9V81.1H43.6V69.2H40.1V68Z"></path>
          <path d="M54.4,68h4.1a4.23,4.23,0,0,1,4.3,4.2v.1a4.1,4.1,0,0,1-1.4,3.1,3.77,3.77,0,0,1-1.5.9c.6,1.1,1.5,2.7,2.8,4.8H61.2c0-.1-.4-.7-1.1-1.9l-1.5-2.7h-3v4.6H54.4V68Zm1.2,1.2v6.1h2.9A3.13,3.13,0,0,0,61,74a3.37,3.37,0,0,0,.5-1.7v-.1a3,3,0,0,0-1.2-2.4,3.08,3.08,0,0,0-1.9-.6Z"></path>
          <path d="M74.2,68s.1.2.3.7c1,2.7,2.6,6.7,4.7,12.1l.1.3H78c0-.1-.3-.7-.8-2-.1-.4-.3-.7-.4-1.1H70.4s-.4.9-1,2.4c-.2.4-.2.6-.3.7H67.8c.9-2.2,2.6-6.6,5.1-13.1Zm-3.3,8.7h5.5c-.4-1.2-1.3-3.5-2.7-7Z"></path>
          <path d="M85.4,68h1.5s1.6,2.7,4.8,7.8l2,3.3h0V68H95V81.1H93.5a10.54,10.54,0,0,1-.7-1.1L88,72.2c-.3-.5-.8-1.2-1.3-2.2V81.1H85.4V68Z"></path>
          <path d="M105.6,67.8h.1a3.74,3.74,0,0,1,1.8.5c.2.1.4.3.6.4s.3.2.4.4a4.23,4.23,0,0,1,.5.7c.1.1.1.2.2.4l-1.1.5a3,3,0,0,0-.5-.7,2.46,2.46,0,0,0-1.9-.9h0a2.41,2.41,0,0,0-1.8.7l-.4.4a2.2,2.2,0,0,0-.4,1.3,1.46,1.46,0,0,0,.5,1.2,2.18,2.18,0,0,0,.8.5,11.22,11.22,0,0,0,2.6.8c.3.1.5.2.8.3a3.51,3.51,0,0,1,.8.5l.4.4c.1.1.2.3.3.4a3.29,3.29,0,0,1,.4,1.7v.1a4.14,4.14,0,0,1-.5,1.9,3.33,3.33,0,0,1-1.9,1.6,4,4,0,0,1-1.5.3h-.2a5.26,5.26,0,0,1-1.8-.4,2.09,2.09,0,0,1-.6-.4l-.9-.9a5.58,5.58,0,0,1-.5-.8.76.76,0,0,1-.1-.4s.4-.2,1.2-.5a5.94,5.94,0,0,0,.4.8c.1.2.3.3.4.4a2.65,2.65,0,0,0,.6.5,3.26,3.26,0,0,0,1.4.4h.1a3,3,0,0,0,1.6-.5l.4-.4a4.05,4.05,0,0,0,.5-.9,2.2,2.2,0,0,0,.1-.8h0a2.27,2.27,0,0,0-.6-1.6c-.2-.1-.3-.3-.5-.4s-.2-.1-.4-.2a2.92,2.92,0,0,0-.9-.2,15.55,15.55,0,0,1-2.3-.8,2.85,2.85,0,0,1-1.7-2.7v-.1a3.14,3.14,0,0,1,.7-2.1c.1-.1.2-.3.4-.5s.4-.3.6-.5a3,3,0,0,1,.8-.4A3.88,3.88,0,0,0,105.6,67.8Z"></path>
          <path d="M116,68h4.1a4.31,4.31,0,0,1,4.3,4.2h0v.1a3.85,3.85,0,0,1-1.2,2.9,4.34,4.34,0,0,1-3,1.3h-2.9v4.6h-1.2L116,68Zm1.3,1.2v6.1h2.9a3.13,3.13,0,0,0,2.5-1.3,3.37,3.37,0,0,0,.5-1.7v-.1a3,3,0,0,0-1.2-2.4,3.08,3.08,0,0,0-1.9-.6Z"></path>
          <path d="M131.1,68c.1.2.1.4.2.6.6,2.2,1.4,5.6,2.5,10.1h0c.4-1.4,1.4-4.3,2.7-8.6.1-.3.3-1,.7-2h.9a12.55,12.55,0,0,0,.4,1.2c.7,2.1,1.7,5.3,3,9.4h0c.4-1.8,1.3-5.3,2.7-10.6h1.3L142.1,81c0,.2-.1.2-.1.2h-1.1a6.89,6.89,0,0,1-.3-.8c-.7-2.1-1.7-5.4-3.1-9.7-.6,1.7-1.7,5.2-3.4,10.5H133s-.1-.4-.3-1.3l-3.1-11.8Z"></path>
          <path d="M157.5,68h0a5.89,5.89,0,0,1,4.2,1.7c.3.4.6.7.9,1.1a6.77,6.77,0,0,1,1,3.6v.1a6.65,6.65,0,0,1-1.9,4.7,5.71,5.71,0,0,1-8.1.2.1.1,0,0,1-.1-.1,10.59,10.59,0,0,1-1-1.2,7.42,7.42,0,0,1-1-3.5v-.1a7,7,0,0,1,1.6-4.4l.9-.9A5.31,5.31,0,0,1,157.5,68Zm-4.8,6.5h0a5.44,5.44,0,0,0,1.5,3.9,4.47,4.47,0,0,0,6.4.1l.6-.6a6,6,0,0,0,1.1-3.4v-.1a5.78,5.78,0,0,0-1.5-3.9,4.53,4.53,0,0,0-3.3-1.4,4.6,4.6,0,0,0-3.6,1.7A6.28,6.28,0,0,0,152.7,74.5Z"></path>
          <path d="M175.6,68h0a5.89,5.89,0,0,1,4.2,1.7c.3.4.6.7.9,1.1a6.77,6.77,0,0,1,1,3.6v.1a6.65,6.65,0,0,1-1.9,4.7,6,6,0,0,1-4.2,1.8,5.66,5.66,0,0,1-4.1-1.7,6.42,6.42,0,0,1-1-1.3,7.42,7.42,0,0,1-1-3.5v-.1a7.2,7.2,0,0,1,1.6-4.4,5.46,5.46,0,0,1,4.5-2Zm-4.8,6.5h0a5.44,5.44,0,0,0,1.5,3.9,4.56,4.56,0,0,0,6.4.2,4.35,4.35,0,0,0,.6-.7,6,6,0,0,0,1.1-3.4v-.1a5.78,5.78,0,0,0-1.5-3.9,4.56,4.56,0,0,0-6.4-.2l-.5.5A6.28,6.28,0,0,0,170.8,74.5Z"></path>
          <path d="M188.3,68h3.1a6.2,6.2,0,0,1,4.1,1.6,5.24,5.24,0,0,1,1,1.1,6.52,6.52,0,0,1-.6,8.4,6,6,0,0,1-4.7,2h-3l.1-13.1Zm1.2,1.2V79.8h1.8a5.12,5.12,0,0,0,4.4-2.4,6,6,0,0,0,.8-2.9,5.44,5.44,0,0,0-1.7-4,3.59,3.59,0,0,0-1-.7,4.65,4.65,0,0,0-2.3-.6Z"></path>
        </g>
      </g>
    </g>
  </g>
</svg>
